# xmcd CD database file
#
# Track frame offsets:
#	150
#	17512
#	31976
#	48268
#	63336
#
# Disc length: 1032 seconds
#
# Revision: 5
# Processed by: cddbd v1.5.1PL2 Copyright (c) Steve Scherf et al.
# Submitted via: CDex 1.51
#
DISCID=33040605
DTITLE=Zahori tropical - Un mundo para dos
DYEAR=2006
DGENRE=Salsa
TTITLE0=Un mundo para dos
TTITLE1=Escucha esta cumbia
TTITLE2=Distintos rumbos
TTITLE3=Pagarás caro
TTITLE4=Mi sombrero volteado
EXTD=YEAR: 2006
EXTT0=
EXTT1=
EXTT2=
EXTT3=
EXTT4=
PLAYORDER=
